G04*
G04 #@! TF.GenerationSoftware,Altium Limited,Altium Designer,19.1.9 (167)*
G04*
G04 Layer_Color=65535*
%FSLAX25Y25*%
%MOIN*%
G70*
G01*
G75*
%ADD10C,0.01000*%
%ADD11C,0.00787*%
%ADD12C,0.00394*%
D10*
X145343Y-49000D02*
G03*
X145343Y-49000I-59842J0D01*
G01*
X11500Y-60244D02*
Y-54246D01*
X14499D01*
X15499Y-55246D01*
Y-57245D01*
X14499Y-58245D01*
X11500D01*
X13499D02*
X15499Y-60244D01*
X21497D02*
X17498D01*
X21497Y-56245D01*
Y-55246D01*
X20497Y-54246D01*
X18498D01*
X17498Y-55246D01*
X12500Y-15000D02*
Y-9002D01*
X15499D01*
X16499Y-10002D01*
Y-12001D01*
X15499Y-13001D01*
X12500D01*
X14499D02*
X16499Y-15000D01*
X18498D02*
X20497D01*
X19498D01*
Y-9002D01*
X18498Y-10002D01*
X-6501Y-8002D02*
X-8501D01*
X-7501D01*
Y-13000D01*
X-8501Y-14000D01*
X-9500D01*
X-10500Y-13000D01*
X-4502Y-14000D02*
X-2503D01*
X-3502D01*
Y-8002D01*
X-4502Y-9002D01*
X35500Y9998D02*
X37499D01*
X36500D01*
Y4000D01*
X35500D01*
X37499D01*
X44497Y8998D02*
X43497Y9998D01*
X41498D01*
X40498Y8998D01*
Y5000D01*
X41498Y4000D01*
X43497D01*
X44497Y5000D01*
X46496Y4000D02*
X48496D01*
X47496D01*
Y9998D01*
X46496Y8998D01*
D11*
X-16811Y-77433D02*
Y-26567D01*
X6811D01*
Y-77433D02*
Y-26567D01*
X-16811Y-77433D02*
X6811D01*
X20000Y-29500D02*
Y-17500D01*
X13000D02*
X20000D01*
X13000Y-29500D02*
Y-17500D01*
Y-29500D02*
X20000D01*
X13000Y-40000D02*
X20000D01*
Y-52000D02*
Y-40000D01*
X13000Y-52000D02*
X20000D01*
X13000D02*
Y-40000D01*
D12*
X-21500Y-115500D02*
Y16500D01*
Y-115500D02*
X167500D01*
Y16500D01*
X-21500D02*
X167500D01*
M02*
