G04*
G04 #@! TF.GenerationSoftware,Altium Limited,Altium Designer,19.1.9 (167)*
G04*
G04 Layer_Color=32896*
%FSLAX25Y25*%
%MOIN*%
G70*
G01*
G75*
%ADD10C,0.01000*%
%ADD12C,0.00394*%
D10*
X126501Y-86806D02*
X127501Y-85807D01*
X129500D01*
X130500Y-86806D01*
Y-90805D01*
X129500Y-91805D01*
X127501D01*
X126501Y-90805D01*
X124502Y-85807D02*
Y-91805D01*
Y-88806D01*
X123502Y-87806D01*
X121503D01*
X120503Y-88806D01*
Y-91805D01*
X118504Y-87806D02*
Y-91805D01*
Y-89805D01*
X117504Y-88806D01*
X116505Y-87806D01*
X115505D01*
X111506Y-91805D02*
X109507D01*
X108507Y-90805D01*
Y-88806D01*
X109507Y-87806D01*
X111506D01*
X112506Y-88806D01*
Y-90805D01*
X111506Y-91805D01*
X106508D02*
Y-87806D01*
X103509D01*
X102509Y-88806D01*
Y-91805D01*
X99510D02*
X97511D01*
X96511Y-90805D01*
Y-88806D01*
X97511Y-87806D01*
X99510D01*
X100510Y-88806D01*
Y-90805D01*
X99510Y-91805D01*
X94512Y-85807D02*
Y-91805D01*
X91513D01*
X90513Y-90805D01*
Y-86806D01*
X91513Y-85807D01*
X94512D01*
X87514Y-91805D02*
X85514D01*
X84515Y-90805D01*
Y-88806D01*
X85514Y-87806D01*
X87514D01*
X88514Y-88806D01*
Y-90805D01*
X87514Y-91805D01*
X81516Y-86806D02*
Y-87806D01*
X82516D01*
X80516D01*
X81516D01*
Y-90805D01*
X80516Y-91805D01*
X77517Y-88806D02*
X73518D01*
X71519Y-85807D02*
Y-89805D01*
X69520Y-91805D01*
X67520Y-89805D01*
Y-85807D01*
X61522Y-91805D02*
X65521D01*
X61522Y-87806D01*
Y-86806D01*
X62522Y-85807D01*
X64521D01*
X65521Y-86806D01*
X126501Y-95404D02*
X130500D01*
Y-98403D01*
X128501D01*
X130500D01*
Y-101402D01*
X121503D02*
X123502D01*
X124502Y-100403D01*
Y-98403D01*
X123502Y-97404D01*
X121503D01*
X120503Y-98403D01*
Y-99403D01*
X124502D01*
X118504Y-95404D02*
Y-101402D01*
X115505D01*
X114505Y-100403D01*
Y-99403D01*
Y-98403D01*
X115505Y-97404D01*
X118504D01*
X112506Y-101402D02*
Y-100403D01*
X111506D01*
Y-101402D01*
X112506D01*
X101509D02*
X99510D01*
X100510D01*
Y-95404D01*
X101509Y-96404D01*
X93512Y-101402D02*
Y-95404D01*
X96511Y-98403D01*
X92512D01*
X80516Y-101402D02*
X84515D01*
X80516Y-97404D01*
Y-96404D01*
X81516Y-95404D01*
X83515D01*
X84515Y-96404D01*
X78517D02*
X77517Y-95404D01*
X75518D01*
X74518Y-96404D01*
Y-100403D01*
X75518Y-101402D01*
X77517D01*
X78517Y-100403D01*
Y-96404D01*
X68520Y-101402D02*
X72519D01*
X68520Y-97404D01*
Y-96404D01*
X69520Y-95404D01*
X71519D01*
X72519Y-96404D01*
X62522Y-101402D02*
X66521D01*
X62522Y-97404D01*
Y-96404D01*
X63522Y-95404D01*
X65521D01*
X66521Y-96404D01*
X130500Y-111000D02*
Y-105002D01*
X128501Y-107001D01*
X126501Y-105002D01*
Y-111000D01*
X123502Y-107001D02*
X121503D01*
X120503Y-108001D01*
Y-111000D01*
X123502D01*
X124502Y-110000D01*
X123502Y-109001D01*
X120503D01*
X118504Y-107001D02*
Y-111000D01*
Y-109001D01*
X117504Y-108001D01*
X116505Y-107001D01*
X115505D01*
X108507D02*
X111506D01*
X112506Y-108001D01*
Y-110000D01*
X111506Y-111000D01*
X108507D01*
X106508Y-108001D02*
X102509D01*
X97511Y-105002D02*
X99510D01*
X100510Y-106002D01*
Y-110000D01*
X99510Y-111000D01*
X97511D01*
X96511Y-110000D01*
Y-106002D01*
X97511Y-105002D01*
X94512Y-111000D02*
X92512D01*
X93512D01*
Y-105002D01*
X94512D01*
X89513Y-111000D02*
X87514D01*
X88514D01*
Y-107001D01*
X89513D01*
X84515D02*
X82516Y-111000D01*
X80516Y-107001D01*
X78517Y-111000D02*
X76517D01*
X77517D01*
Y-107001D01*
X78517D01*
X70519Y-111000D02*
X72519D01*
X73518Y-110000D01*
Y-108001D01*
X72519Y-107001D01*
X70519D01*
X69520Y-108001D01*
Y-109001D01*
X73518D01*
X67520Y-107001D02*
Y-111000D01*
Y-109001D01*
X66521Y-108001D01*
X65521Y-107001D01*
X64521D01*
X55524Y-105002D02*
Y-111000D01*
X51525D01*
X48526Y-107001D02*
X46527D01*
X45527Y-108001D01*
Y-111000D01*
X48526D01*
X49526Y-110000D01*
X48526Y-109001D01*
X45527D01*
X43528Y-111000D02*
X41529D01*
X42529D01*
Y-105002D01*
X43528D01*
X37530Y-111000D02*
X35531D01*
X34531Y-110000D01*
Y-108001D01*
X35531Y-107001D01*
X37530D01*
X38530Y-108001D01*
Y-110000D01*
X37530Y-111000D01*
X32532D02*
Y-107001D01*
X29533D01*
X28533Y-108001D01*
Y-111000D01*
X22535Y-105002D02*
Y-111000D01*
X25534D01*
X26534Y-110000D01*
Y-108001D01*
X25534Y-107001D01*
X22535D01*
X17537Y-111000D02*
X19536D01*
X20536Y-110000D01*
Y-108001D01*
X19536Y-107001D01*
X17537D01*
X16537Y-108001D01*
Y-109001D01*
X20536D01*
D12*
X-21500Y-115500D02*
Y16500D01*
Y-115500D02*
X167500D01*
Y16500D01*
X-21500D02*
X167500D01*
M02*
