M48
;Layer_Color=9474304
;FILE_FORMAT=2:5
INCH,LZ
;TYPE=PLATED
T1F00S00C0.01181
T2F00S00C0.03937
T3F00S00C0.11417
%
T01
X01305Y-011
X0158
Y-00825
X01305
X0103
Y-011
X00755
X0048
X00205
X-0007
Y-00825
X00205
X0048
X00755
Y-0055
X0048
X00455Y-00445
X00445Y-0038
X00455Y-0034
X00445Y-003
X004Y-00285
X0039Y-00235
X00445
X0049Y-00275
X00505Y-00335
Y-0039
X004
X00335Y-00365
Y-003
X00285
X0024Y-00315
X00215Y-00285
X0021Y-00235
X0027
X00335
X00265Y-00375
X00215Y-00355
Y-00425
X00175Y-00395
X00115Y-0044
Y-0051
X00065Y-0049
X00025Y-00465
X-0003Y-0047
X00055Y-0041
X0002Y-0037
X00105Y-0036
X0007Y-0032
X00155Y-0031
X0012Y-0027
X-0007Y-00275
X-00155Y00005
X00205Y0
X0048
X00755
Y-00275
X0103
Y-0055
Y0
X00305Y-0055
X00205
X00115Y-00585
X00055Y-0055
X0158
Y-00275
X01305
Y0
X0162
T02
X-001Y-0062
Y-0052
X0
Y-0042
X-001
X0Y-0062
X00402Y-0064
Y-0054
Y-0044
Y-0034
X0130776
Y-0044
Y-0054
Y-0064
T03
X0147638Y-0098425
X0
Y0
X0147638
M30
